<svg version="1" xmlns="http://www.w3.org/2000/svg" width="533.333" height="533.333" viewBox="0 0 400.000000 400.000000"><path d="M183 .6c-1.4.2-6.5.9-11.5 1.5C108.3 9.7 46.9 54.9 19.3 113.9c-28.6 61.4-25.3 132 8.8 188.9C73.6 378.5 163.7 415.7 249 394c59-15 108.2-56 132.7-110.5 12.2-27.1 16.9-47.3 18-77 1.9-55.6-18.9-108.4-58.3-147.9C311.8 29 272.8 9 231.5 2.3 222.9.9 188.2-.3 183 .6zm-16.5 74.5c16.9 1.2 30.3 3.8 44.9 8.6 29.1 9.7 43.1 28.8 41.2 56.6-1 14.3-5.6 25.2-16.5 38.6-14.3 17.7-57.5 37.4-90.5 41.2-5.5.6-10.5 1.5-10.9 1.9-.7.6.7 53.5 1.9 70.1l.7 8.7-5.4 2c-3 1.1-8.8 2.5-13 3.2-7.4 1.2-24.1 1.1-25.4-.1-.3-.4-.1-43.6.5-96l1.1-95.4-4-7.7c-4.4-8.6-9.4-23.6-8.9-27 .4-3 3.8-3.6 26.8-4.6 27.1-1.3 41.8-1.3 57.5-.1zm148.9 3.7c6 2 5.9.7 2.1 20.7-2 10.7-3 20.5-4 41.5-2 38.3-4.4 78.7-5.1 83.7-.5 4.1-.6 4.2-5.5 5.2-4.8 1.1-17.6.5-19.7-.8-.6-.3-1.5-12.4-2.1-27.6-1.3-32.7-4.3-69.4-8-99l-2.8-22 3.1-1.3c7.5-3.4 32.4-3.6 42-.4zm-10.9 178.1c4.4 1.9 10 7.8 11.7 12 .5 1.4 1 5.1 1 8.2 0 21.2-27.3 29.6-39.6 12.1-3.5-4.9-4.6-13.6-2.6-19.7 2.8-8.4 11.4-14.5 20.5-14.5 2.8 0 6.8.9 9 1.9z"/><path d="M147.9 109.3l-11.7.9-.6 3c-.3 1.6-.9 18.4-1.3 37.4l-.6 34.4h2.9c1.6 0 7.2-.7 12.4-1.5 30.2-4.9 50-15.3 56.8-29.9 10-21.3.3-37.6-25.8-42.9-10.5-2.2-18.6-2.5-32.1-1.4z"/></svg>